<svg xmlns="http://www.w3.org/2000/svg" viewBox="0 0 370 1340" width="370" height="1340" preserveAspectRatio="xMinYMin meet">
<rect width="370" height="1340" fill="#fafafa"/>
<rect x="8" y="8" width="34" height="4" fill="#0d0887"/>
<rect x="8" y="16" width="24" height="4" fill="#0d0887"/>
<rect x="8" y="24" width="150" height="4" fill="#0d0887"/>
<rect x="8" y="28" width="122" height="4" fill="#0d0887"/>
<rect x="8" y="36" width="44" height="4" fill="#0d0887"/>
<rect x="16" y="40" width="86" height="4" fill="#7e03a8"/>
<rect x="16" y="44" width="88" height="4" fill="#7e03a8"/>
<rect x="16" y="48" width="80" height="4" fill="#7e03a8"/>
<rect x="16" y="52" width="82" height="4" fill="#7e03a8"/>
<rect x="16" y="56" width="88" height="4" fill="#7e03a8"/>
<rect x="8" y="60" width="2" height="4" fill="#0d0887"/>
<rect x="8" y="68" width="62" height="4" fill="#0d0887"/>
<rect x="16" y="72" width="38" height="4" fill="#7e03a8"/>
<rect x="16" y="76" width="32" height="4" fill="#7e03a8"/>
<rect x="16" y="80" width="40" height="4" fill="#7e03a8"/>
<rect x="16" y="84" width="40" height="4" fill="#7e03a8"/>
<rect x="16" y="88" width="32" height="4" fill="#7e03a8"/>
<rect x="8" y="92" width="2" height="4" fill="#0d0887"/>
<rect x="8" y="100" width="60" height="4" fill="#0d0887"/>
<rect x="8" y="108" width="40" height="4" fill="#7e03a8"/>
<rect x="16" y="112" width="42" height="4" fill="#7e03a8"/>
<rect x="16" y="116" width="58" height="4" fill="#7e03a8"/>
<rect x="24" y="120" width="26" height="4" fill="#cc4778"/>
<rect x="32" y="124" width="52" height="4" fill="#f0844c"/>
<rect x="24" y="128" width="2" height="4" fill="#cc4778"/>
<rect x="16" y="132" width="2" height="4" fill="#7e03a8"/>
<rect x="16" y="136" width="26" height="4" fill="#7e03a8"/>
<rect x="8" y="140" width="2" height="4" fill="#7e03a8"/>
<rect x="8" y="148" width="40" height="4" fill="#7e03a8"/>
<rect x="16" y="152" width="42" height="4" fill="#7e03a8"/>
<rect x="16" y="156" width="58" height="4" fill="#7e03a8"/>
<rect x="24" y="160" width="26" height="4" fill="#cc4778"/>
<rect x="32" y="164" width="52" height="4" fill="#f0844c"/>
<rect x="24" y="168" width="2" height="4" fill="#cc4778"/>
<rect x="16" y="172" width="2" height="4" fill="#7e03a8"/>
<rect x="16" y="176" width="26" height="4" fill="#7e03a8"/>
<rect x="8" y="180" width="2" height="4" fill="#7e03a8"/>
<rect x="8" y="188" width="40" height="4" fill="#7e03a8"/>
<rect x="16" y="192" width="42" height="4" fill="#7e03a8"/>
<rect x="16" y="196" width="58" height="4" fill="#7e03a8"/>
<rect x="24" y="200" width="30" height="4" fill="#cc4778"/>
<rect x="32" y="204" width="52" height="4" fill="#f0844c"/>
<rect x="24" y="208" width="2" height="4" fill="#cc4778"/>
<rect x="16" y="212" width="2" height="4" fill="#7e03a8"/>
<rect x="16" y="216" width="26" height="4" fill="#7e03a8"/>
<rect x="8" y="220" width="2" height="4" fill="#7e03a8"/>
<rect x="8" y="228" width="42" height="4" fill="#7e03a8"/>
<rect x="16" y="232" width="42" height="4" fill="#7e03a8"/>
<rect x="16" y="236" width="58" height="4" fill="#7e03a8"/>
<rect x="24" y="240" width="60" height="4" fill="#cc4778"/>
<rect x="32" y="244" width="52" height="4" fill="#f0844c"/>
<rect x="24" y="248" width="2" height="4" fill="#cc4778"/>
<rect x="16" y="252" width="2" height="4" fill="#7e03a8"/>
<rect x="16" y="256" width="26" height="4" fill="#7e03a8"/>
<rect x="8" y="260" width="2" height="4" fill="#7e03a8"/>
<rect x="8" y="268" width="42" height="4" fill="#7e03a8"/>
<rect x="16" y="272" width="42" height="4" fill="#7e03a8"/>
<rect x="16" y="276" width="58" height="4" fill="#7e03a8"/>
<rect x="24" y="280" width="58" height="4" fill="#cc4778"/>
<rect x="32" y="284" width="52" height="4" fill="#f0844c"/>
<rect x="24" y="288" width="2" height="4" fill="#cc4778"/>
<rect x="16" y="292" width="2" height="4" fill="#7e03a8"/>
<rect x="16" y="296" width="26" height="4" fill="#7e03a8"/>
<rect x="8" y="300" width="2" height="4" fill="#7e03a8"/>
<rect x="8" y="308" width="42" height="4" fill="#7e03a8"/>
<rect x="16" y="312" width="42" height="4" fill="#7e03a8"/>
<rect x="16" y="316" width="58" height="4" fill="#7e03a8"/>
<rect x="24" y="320" width="52" height="4" fill="#cc4778"/>
<rect x="32" y="324" width="52" height="4" fill="#f0844c"/>
<rect x="24" y="328" width="2" height="4" fill="#cc4778"/>
<rect x="16" y="332" width="2" height="4" fill="#7e03a8"/>
<rect x="16" y="336" width="26" height="4" fill="#7e03a8"/>
<rect x="8" y="340" width="2" height="4" fill="#7e03a8"/>
<rect x="8" y="348" width="42" height="4" fill="#7e03a8"/>
<rect x="16" y="352" width="42" height="4" fill="#7e03a8"/>
<rect x="16" y="356" width="58" height="4" fill="#7e03a8"/>
<rect x="24" y="360" width="50" height="4" fill="#cc4778"/>
<rect x="32" y="364" width="52" height="4" fill="#f0844c"/>
<rect x="24" y="368" width="2" height="4" fill="#cc4778"/>
<rect x="16" y="372" width="2" height="4" fill="#7e03a8"/>
<rect x="16" y="376" width="26" height="4" fill="#7e03a8"/>
<rect x="8" y="380" width="2" height="4" fill="#7e03a8"/>
<rect x="8" y="388" width="42" height="4" fill="#7e03a8"/>
<rect x="16" y="392" width="42" height="4" fill="#7e03a8"/>
<rect x="16" y="396" width="58" height="4" fill="#7e03a8"/>
<rect x="24" y="400" width="84" height="4" fill="#cc4778"/>
<rect x="32" y="404" width="52" height="4" fill="#f0844c"/>
<rect x="24" y="408" width="2" height="4" fill="#cc4778"/>
<rect x="16" y="412" width="2" height="4" fill="#7e03a8"/>
<rect x="16" y="416" width="26" height="4" fill="#7e03a8"/>
<rect x="8" y="420" width="2" height="4" fill="#7e03a8"/>
<rect x="8" y="428" width="42" height="4" fill="#7e03a8"/>
<rect x="16" y="432" width="42" height="4" fill="#7e03a8"/>
<rect x="16" y="436" width="58" height="4" fill="#7e03a8"/>
<rect x="24" y="440" width="50" height="4" fill="#cc4778"/>
<rect x="32" y="444" width="52" height="4" fill="#f0844c"/>
<rect x="24" y="448" width="2" height="4" fill="#cc4778"/>
<rect x="16" y="452" width="2" height="4" fill="#7e03a8"/>
<rect x="16" y="456" width="26" height="4" fill="#7e03a8"/>
<rect x="8" y="460" width="2" height="4" fill="#7e03a8"/>
<rect x="8" y="468" width="42" height="4" fill="#7e03a8"/>
<rect x="16" y="472" width="42" height="4" fill="#7e03a8"/>
<rect x="16" y="476" width="58" height="4" fill="#7e03a8"/>
<rect x="24" y="480" width="50" height="4" fill="#cc4778"/>
<rect x="32" y="484" width="52" height="4" fill="#f0844c"/>
<rect x="24" y="488" width="2" height="4" fill="#cc4778"/>
<rect x="16" y="492" width="2" height="4" fill="#7e03a8"/>
<rect x="16" y="496" width="26" height="4" fill="#7e03a8"/>
<rect x="8" y="500" width="2" height="4" fill="#7e03a8"/>
<rect x="8" y="508" width="62" height="4" fill="#0d0887"/>
<rect x="8" y="516" width="40" height="4" fill="#7e03a8"/>
<rect x="16" y="520" width="32" height="4" fill="#7e03a8"/>
<rect x="16" y="524" width="58" height="4" fill="#7e03a8"/>
<rect x="24" y="528" width="46" height="4" fill="#cc4778"/>
<rect x="16" y="532" width="2" height="4" fill="#7e03a8"/>
<rect x="16" y="536" width="20" height="4" fill="#7e03a8"/>
<rect x="8" y="540" width="2" height="4" fill="#7e03a8"/>
<rect x="8" y="548" width="40" height="4" fill="#7e03a8"/>
<rect x="16" y="552" width="36" height="4" fill="#7e03a8"/>
<rect x="16" y="556" width="58" height="4" fill="#7e03a8"/>
<rect x="24" y="560" width="58" height="4" fill="#cc4778"/>
<rect x="16" y="564" width="2" height="4" fill="#7e03a8"/>
<rect x="16" y="568" width="24" height="4" fill="#7e03a8"/>
<rect x="8" y="572" width="2" height="4" fill="#7e03a8"/>
<rect x="8" y="580" width="40" height="4" fill="#7e03a8"/>
<rect x="16" y="584" width="38" height="4" fill="#7e03a8"/>
<rect x="16" y="588" width="58" height="4" fill="#7e03a8"/>
<rect x="24" y="592" width="64" height="4" fill="#cc4778"/>
<rect x="16" y="596" width="2" height="4" fill="#7e03a8"/>
<rect x="16" y="600" width="26" height="4" fill="#7e03a8"/>
<rect x="8" y="604" width="2" height="4" fill="#7e03a8"/>
<rect x="8" y="612" width="42" height="4" fill="#7e03a8"/>
<rect x="16" y="616" width="42" height="4" fill="#7e03a8"/>
<rect x="16" y="620" width="58" height="4" fill="#7e03a8"/>
<rect x="24" y="624" width="76" height="4" fill="#cc4778"/>
<rect x="16" y="628" width="2" height="4" fill="#7e03a8"/>
<rect x="16" y="632" width="30" height="4" fill="#7e03a8"/>
<rect x="8" y="636" width="2" height="4" fill="#7e03a8"/>
<rect x="8" y="644" width="40" height="4" fill="#7e03a8"/>
<rect x="16" y="648" width="36" height="4" fill="#7e03a8"/>
<rect x="16" y="652" width="58" height="4" fill="#7e03a8"/>
<rect x="24" y="656" width="70" height="4" fill="#cc4778"/>
<rect x="16" y="660" width="2" height="4" fill="#7e03a8"/>
<rect x="16" y="664" width="24" height="4" fill="#7e03a8"/>
<rect x="8" y="668" width="2" height="4" fill="#7e03a8"/>
<rect x="8" y="676" width="58" height="4" fill="#0d0887"/>
<rect x="8" y="684" width="40" height="4" fill="#7e03a8"/>
<rect x="16" y="688" width="20" height="4" fill="#7e03a8"/>
<rect x="16" y="692" width="58" height="4" fill="#7e03a8"/>
<rect x="24" y="696" width="26" height="4" fill="#cc4778"/>
<rect x="32" y="700" width="14" height="4" fill="#f0844c"/>
<rect x="24" y="704" width="2" height="4" fill="#cc4778"/>
<rect x="16" y="708" width="2" height="4" fill="#7e03a8"/>
<rect x="16" y="712" width="24" height="4" fill="#7e03a8"/>
<rect x="8" y="716" width="2" height="4" fill="#7e03a8"/>
<rect x="8" y="724" width="40" height="4" fill="#7e03a8"/>
<rect x="16" y="728" width="20" height="4" fill="#7e03a8"/>
<rect x="16" y="732" width="58" height="4" fill="#7e03a8"/>
<rect x="24" y="736" width="26" height="4" fill="#cc4778"/>
<rect x="32" y="740" width="14" height="4" fill="#f0844c"/>
<rect x="24" y="744" width="2" height="4" fill="#cc4778"/>
<rect x="16" y="748" width="2" height="4" fill="#7e03a8"/>
<rect x="16" y="752" width="24" height="4" fill="#7e03a8"/>
<rect x="8" y="756" width="2" height="4" fill="#7e03a8"/>
<rect x="8" y="764" width="40" height="4" fill="#7e03a8"/>
<rect x="16" y="768" width="20" height="4" fill="#7e03a8"/>
<rect x="16" y="772" width="58" height="4" fill="#7e03a8"/>
<rect x="24" y="776" width="30" height="4" fill="#cc4778"/>
<rect x="32" y="780" width="14" height="4" fill="#f0844c"/>
<rect x="24" y="784" width="2" height="4" fill="#cc4778"/>
<rect x="16" y="788" width="2" height="4" fill="#7e03a8"/>
<rect x="16" y="792" width="24" height="4" fill="#7e03a8"/>
<rect x="8" y="796" width="2" height="4" fill="#7e03a8"/>
<rect x="8" y="804" width="40" height="4" fill="#7e03a8"/>
<rect x="16" y="808" width="20" height="4" fill="#7e03a8"/>
<rect x="16" y="812" width="58" height="4" fill="#7e03a8"/>
<rect x="24" y="816" width="60" height="4" fill="#cc4778"/>
<rect x="32" y="820" width="14" height="4" fill="#f0844c"/>
<rect x="24" y="824" width="2" height="4" fill="#cc4778"/>
<rect x="16" y="828" width="2" height="4" fill="#7e03a8"/>
<rect x="16" y="832" width="24" height="4" fill="#7e03a8"/>
<rect x="8" y="836" width="2" height="4" fill="#7e03a8"/>
<rect x="8" y="844" width="40" height="4" fill="#7e03a8"/>
<rect x="16" y="848" width="20" height="4" fill="#7e03a8"/>
<rect x="16" y="852" width="58" height="4" fill="#7e03a8"/>
<rect x="24" y="856" width="84" height="4" fill="#cc4778"/>
<rect x="32" y="860" width="14" height="4" fill="#f0844c"/>
<rect x="24" y="864" width="2" height="4" fill="#cc4778"/>
<rect x="16" y="868" width="2" height="4" fill="#7e03a8"/>
<rect x="16" y="872" width="24" height="4" fill="#7e03a8"/>
<rect x="8" y="876" width="2" height="4" fill="#7e03a8"/>
<rect x="8" y="884" width="64" height="4" fill="#0d0887"/>
<rect x="8" y="892" width="40" height="4" fill="#7e03a8"/>
<rect x="16" y="896" width="20" height="4" fill="#7e03a8"/>
<rect x="16" y="900" width="58" height="4" fill="#7e03a8"/>
<rect x="24" y="904" width="30" height="4" fill="#cc4778"/>
<rect x="16" y="908" width="2" height="4" fill="#7e03a8"/>
<rect x="16" y="912" width="20" height="4" fill="#7e03a8"/>
<rect x="8" y="916" width="2" height="4" fill="#7e03a8"/>
<rect x="8" y="924" width="40" height="4" fill="#7e03a8"/>
<rect x="16" y="928" width="20" height="4" fill="#7e03a8"/>
<rect x="16" y="932" width="58" height="4" fill="#7e03a8"/>
<rect x="24" y="936" width="28" height="4" fill="#cc4778"/>
<rect x="16" y="940" width="2" height="4" fill="#7e03a8"/>
<rect x="16" y="944" width="20" height="4" fill="#7e03a8"/>
<rect x="8" y="948" width="2" height="4" fill="#7e03a8"/>
<rect x="8" y="956" width="40" height="4" fill="#7e03a8"/>
<rect x="16" y="960" width="20" height="4" fill="#7e03a8"/>
<rect x="16" y="964" width="58" height="4" fill="#7e03a8"/>
<rect x="24" y="968" width="50" height="4" fill="#cc4778"/>
<rect x="16" y="972" width="2" height="4" fill="#7e03a8"/>
<rect x="16" y="976" width="20" height="4" fill="#7e03a8"/>
<rect x="8" y="980" width="2" height="4" fill="#7e03a8"/>
<rect x="8" y="988" width="40" height="4" fill="#7e03a8"/>
<rect x="16" y="992" width="20" height="4" fill="#7e03a8"/>
<rect x="16" y="996" width="58" height="4" fill="#7e03a8"/>
<rect x="24" y="1000" width="30" height="4" fill="#cc4778"/>
<rect x="16" y="1004" width="2" height="4" fill="#7e03a8"/>
<rect x="16" y="1008" width="72" height="4" fill="#7e03a8"/>
<rect x="8" y="1012" width="2" height="4" fill="#7e03a8"/>
<rect x="8" y="1020" width="50" height="4" fill="#7e03a8"/>
<rect x="16" y="1024" width="20" height="4" fill="#7e03a8"/>
<rect x="16" y="1028" width="58" height="4" fill="#7e03a8"/>
<rect x="24" y="1032" width="50" height="4" fill="#cc4778"/>
<rect x="16" y="1036" width="2" height="4" fill="#7e03a8"/>
<rect x="16" y="1040" width="72" height="4" fill="#7e03a8"/>
<rect x="8" y="1044" width="2" height="4" fill="#7e03a8"/>
<rect x="8" y="1052" width="46" height="4" fill="#7e03a8"/>
<rect x="16" y="1056" width="16" height="4" fill="#7e03a8"/>
<rect x="16" y="1060" width="58" height="4" fill="#7e03a8"/>
<rect x="24" y="1064" width="46" height="4" fill="#cc4778"/>
<rect x="16" y="1068" width="2" height="4" fill="#7e03a8"/>
<rect x="16" y="1072" width="90" height="4" fill="#7e03a8"/>
<rect x="8" y="1076" width="2" height="4" fill="#7e03a8"/>
<rect x="8" y="1084" width="40" height="4" fill="#7e03a8"/>
<rect x="16" y="1088" width="16" height="4" fill="#7e03a8"/>
<rect x="16" y="1092" width="58" height="4" fill="#7e03a8"/>
<rect x="24" y="1096" width="46" height="4" fill="#cc4778"/>
<rect x="16" y="1100" width="2" height="4" fill="#7e03a8"/>
<rect x="16" y="1104" width="20" height="4" fill="#7e03a8"/>
<rect x="8" y="1108" width="2" height="4" fill="#7e03a8"/>
<rect x="8" y="1116" width="60" height="4" fill="#0d0887"/>
<rect x="8" y="1124" width="40" height="4" fill="#7e03a8"/>
<rect x="16" y="1128" width="38" height="4" fill="#7e03a8"/>
<rect x="16" y="1132" width="58" height="4" fill="#7e03a8"/>
<rect x="24" y="1136" width="60" height="4" fill="#cc4778"/>
<rect x="32" y="1140" width="64" height="4" fill="#f0844c"/>
<rect x="24" y="1144" width="2" height="4" fill="#cc4778"/>
<rect x="16" y="1148" width="2" height="4" fill="#7e03a8"/>
<rect x="16" y="1152" width="26" height="4" fill="#7e03a8"/>
<rect x="8" y="1156" width="2" height="4" fill="#7e03a8"/>
<rect x="8" y="1164" width="40" height="4" fill="#7e03a8"/>
<rect x="16" y="1168" width="36" height="4" fill="#7e03a8"/>
<rect x="16" y="1172" width="58" height="4" fill="#7e03a8"/>
<rect x="24" y="1176" width="26" height="4" fill="#cc4778"/>
<rect x="32" y="1180" width="58" height="4" fill="#f0844c"/>
<rect x="24" y="1184" width="2" height="4" fill="#cc4778"/>
<rect x="16" y="1188" width="2" height="4" fill="#7e03a8"/>
<rect x="16" y="1192" width="24" height="4" fill="#7e03a8"/>
<rect x="8" y="1196" width="2" height="4" fill="#7e03a8"/>
<rect x="8" y="1204" width="40" height="4" fill="#7e03a8"/>
<rect x="16" y="1208" width="32" height="4" fill="#7e03a8"/>
<rect x="16" y="1212" width="58" height="4" fill="#7e03a8"/>
<rect x="24" y="1216" width="84" height="4" fill="#cc4778"/>
<rect x="32" y="1220" width="46" height="4" fill="#f0844c"/>
<rect x="24" y="1224" width="2" height="4" fill="#cc4778"/>
<rect x="16" y="1228" width="2" height="4" fill="#7e03a8"/>
<rect x="16" y="1232" width="20" height="4" fill="#7e03a8"/>
<rect x="8" y="1236" width="2" height="4" fill="#7e03a8"/>
<rect x="8" y="1244" width="40" height="4" fill="#7e03a8"/>
<rect x="16" y="1248" width="20" height="4" fill="#7e03a8"/>
<rect x="16" y="1252" width="58" height="4" fill="#7e03a8"/>
<rect x="24" y="1256" width="60" height="4" fill="#cc4778"/>
<rect x="32" y="1260" width="30" height="4" fill="#f0844c"/>
<rect x="24" y="1264" width="2" height="4" fill="#cc4778"/>
<rect x="16" y="1268" width="2" height="4" fill="#7e03a8"/>
<rect x="16" y="1272" width="20" height="4" fill="#7e03a8"/>
<rect x="8" y="1276" width="2" height="4" fill="#7e03a8"/>
<rect x="8" y="1284" width="40" height="4" fill="#7e03a8"/>
<rect x="16" y="1288" width="20" height="4" fill="#7e03a8"/>
<rect x="16" y="1292" width="20" height="4" fill="#7e03a8"/>
<rect x="16" y="1296" width="58" height="4" fill="#7e03a8"/>
<rect x="24" y="1300" width="26" height="4" fill="#cc4778"/>
<rect x="32" y="1304" width="30" height="4" fill="#f0844c"/>
<rect x="32" y="1308" width="14" height="4" fill="#f0844c"/>
<rect x="24" y="1312" width="2" height="4" fill="#cc4778"/>
<rect x="16" y="1316" width="2" height="4" fill="#7e03a8"/>
<rect x="16" y="1320" width="54" height="4" fill="#7e03a8"/>
<rect x="8" y="1324" width="2" height="4" fill="#7e03a8"/>
<rect x="174" y="8" width="34" height="4" fill="#0d0887"/>
<rect x="174" y="16" width="24" height="4" fill="#0d0887"/>
<rect x="174" y="24" width="92" height="4" fill="#0d0887"/>
<rect x="174" y="32" width="150" height="4" fill="#0d0887"/>
<rect x="174" y="36" width="122" height="4" fill="#0d0887"/>
<rect x="174" y="44" width="44" height="4" fill="#0d0887"/>
<rect x="182" y="48" width="86" height="4" fill="#7e03a8"/>
<rect x="182" y="52" width="88" height="4" fill="#7e03a8"/>
<rect x="182" y="56" width="80" height="4" fill="#7e03a8"/>
<rect x="182" y="60" width="82" height="4" fill="#7e03a8"/>
<rect x="182" y="64" width="88" height="4" fill="#7e03a8"/>
<rect x="174" y="68" width="2" height="4" fill="#0d0887"/>
<rect x="174" y="76" width="62" height="4" fill="#0d0887"/>
<rect x="182" y="80" width="38" height="4" fill="#7e03a8"/>
<rect x="182" y="84" width="32" height="4" fill="#7e03a8"/>
<rect x="182" y="88" width="40" height="4" fill="#7e03a8"/>
<rect x="182" y="92" width="40" height="4" fill="#7e03a8"/>
<rect x="182" y="96" width="32" height="4" fill="#7e03a8"/>
<rect x="174" y="100" width="2" height="4" fill="#0d0887"/>
<rect x="174" y="108" width="26" height="4" fill="#0d0887"/>
<rect x="174" y="112" width="40" height="4" fill="#7e03a8"/>
<rect x="174" y="116" width="40" height="4" fill="#7e03a8"/>
<rect x="174" y="120" width="40" height="4" fill="#7e03a8"/>
<rect x="174" y="124" width="40" height="4" fill="#7e03a8"/>
<rect x="174" y="128" width="40" height="4" fill="#7e03a8"/>
<rect x="174" y="132" width="40" height="4" fill="#7e03a8"/>
<rect x="174" y="136" width="40" height="4" fill="#7e03a8"/>
<rect x="174" y="140" width="40" height="4" fill="#7e03a8"/>
<rect x="174" y="148" width="20" height="4" fill="#0d0887"/>
<rect x="174" y="152" width="40" height="4" fill="#7e03a8"/>
<rect x="174" y="156" width="40" height="4" fill="#7e03a8"/>
<rect x="174" y="160" width="40" height="4" fill="#7e03a8"/>
<rect x="174" y="164" width="40" height="4" fill="#7e03a8"/>
<rect x="174" y="168" width="40" height="4" fill="#7e03a8"/>
<rect x="174" y="172" width="40" height="4" fill="#7e03a8"/>
<rect x="174" y="176" width="40" height="4" fill="#7e03a8"/>
<rect x="174" y="180" width="40" height="4" fill="#7e03a8"/>
<rect x="174" y="184" width="40" height="4" fill="#7e03a8"/>
<rect x="174" y="188" width="40" height="4" fill="#7e03a8"/>
<rect x="174" y="196" width="72" height="4" fill="#0d0887"/>
<rect x="174" y="200" width="116" height="4" fill="#0d0887"/>
<rect x="174" y="208" width="56" height="4" fill="#0d0887"/>
<rect x="174" y="212" width="96" height="4" fill="#0d0887"/>
<rect x="174" y="220" width="60" height="4" fill="#0d0887"/>
<rect x="174" y="228" width="108" height="4" fill="#7e03a8"/>
<rect x="182" y="232" width="108" height="4" fill="#7e03a8"/>
<rect x="174" y="236" width="2" height="4" fill="#7e03a8"/>
<rect x="174" y="244" width="108" height="4" fill="#7e03a8"/>
<rect x="182" y="248" width="108" height="4" fill="#7e03a8"/>
<rect x="174" y="252" width="2" height="4" fill="#7e03a8"/>
<rect x="174" y="260" width="112" height="4" fill="#7e03a8"/>
<rect x="182" y="264" width="112" height="4" fill="#7e03a8"/>
<rect x="174" y="268" width="2" height="4" fill="#7e03a8"/>
<rect x="174" y="276" width="114" height="4" fill="#7e03a8"/>
<rect x="182" y="280" width="122" height="4" fill="#7e03a8"/>
<rect x="174" y="284" width="2" height="4" fill="#7e03a8"/>
<rect x="174" y="292" width="112" height="4" fill="#7e03a8"/>
<rect x="182" y="296" width="120" height="4" fill="#7e03a8"/>
<rect x="174" y="300" width="2" height="4" fill="#7e03a8"/>
<rect x="174" y="308" width="108" height="4" fill="#7e03a8"/>
<rect x="182" y="312" width="108" height="4" fill="#7e03a8"/>
<rect x="174" y="316" width="2" height="4" fill="#7e03a8"/>
<rect x="174" y="324" width="102" height="4" fill="#7e03a8"/>
<rect x="182" y="328" width="110" height="4" fill="#7e03a8"/>
<rect x="174" y="332" width="2" height="4" fill="#7e03a8"/>
<rect x="174" y="340" width="112" height="4" fill="#7e03a8"/>
<rect x="182" y="344" width="122" height="4" fill="#7e03a8"/>
<rect x="174" y="348" width="2" height="4" fill="#7e03a8"/>
<rect x="174" y="356" width="136" height="4" fill="#7e03a8"/>
<rect x="182" y="360" width="180" height="4" fill="#7e03a8"/>
<rect x="174" y="364" width="2" height="4" fill="#7e03a8"/>
<rect x="174" y="372" width="136" height="4" fill="#7e03a8"/>
<rect x="182" y="376" width="180" height="4" fill="#7e03a8"/>
<rect x="174" y="380" width="2" height="4" fill="#7e03a8"/>
<rect x="174" y="388" width="62" height="4" fill="#0d0887"/>
<rect x="174" y="396" width="104" height="4" fill="#7e03a8"/>
<rect x="182" y="400" width="106" height="4" fill="#7e03a8"/>
<rect x="174" y="404" width="2" height="4" fill="#7e03a8"/>
<rect x="174" y="412" width="108" height="4" fill="#7e03a8"/>
<rect x="182" y="416" width="110" height="4" fill="#7e03a8"/>
<rect x="174" y="420" width="2" height="4" fill="#7e03a8"/>
<rect x="174" y="428" width="110" height="4" fill="#7e03a8"/>
<rect x="182" y="432" width="112" height="4" fill="#7e03a8"/>
<rect x="174" y="436" width="2" height="4" fill="#7e03a8"/>
<rect x="174" y="444" width="106" height="4" fill="#7e03a8"/>
<rect x="182" y="448" width="116" height="4" fill="#7e03a8"/>
<rect x="174" y="452" width="2" height="4" fill="#7e03a8"/>
<rect x="174" y="460" width="112" height="4" fill="#7e03a8"/>
<rect x="182" y="464" width="122" height="4" fill="#7e03a8"/>
<rect x="174" y="468" width="2" height="4" fill="#7e03a8"/>
<rect x="174" y="476" width="58" height="4" fill="#0d0887"/>
<rect x="174" y="484" width="88" height="4" fill="#7e03a8"/>
<rect x="182" y="488" width="120" height="4" fill="#7e03a8"/>
<rect x="174" y="492" width="2" height="4" fill="#7e03a8"/>
<rect x="174" y="500" width="88" height="4" fill="#7e03a8"/>
<rect x="182" y="504" width="120" height="4" fill="#7e03a8"/>
<rect x="174" y="508" width="2" height="4" fill="#7e03a8"/>
<rect x="174" y="516" width="92" height="4" fill="#7e03a8"/>
<rect x="182" y="520" width="124" height="4" fill="#7e03a8"/>
<rect x="174" y="524" width="2" height="4" fill="#7e03a8"/>
<rect x="174" y="532" width="104" height="4" fill="#7e03a8"/>
<rect x="182" y="536" width="134" height="4" fill="#7e03a8"/>
<rect x="174" y="540" width="2" height="4" fill="#7e03a8"/>
<rect x="174" y="548" width="102" height="4" fill="#7e03a8"/>
<rect x="182" y="552" width="134" height="4" fill="#7e03a8"/>
<rect x="174" y="556" width="2" height="4" fill="#7e03a8"/>
<rect x="174" y="564" width="64" height="4" fill="#0d0887"/>
<rect x="174" y="572" width="96" height="4" fill="#7e03a8"/>
<rect x="182" y="576" width="126" height="4" fill="#7e03a8"/>
<rect x="182" y="580" width="84" height="4" fill="#7e03a8"/>
<rect x="174" y="584" width="2" height="4" fill="#7e03a8"/>
<rect x="174" y="592" width="94" height="4" fill="#7e03a8"/>
<rect x="182" y="596" width="122" height="4" fill="#7e03a8"/>
<rect x="182" y="600" width="82" height="4" fill="#7e03a8"/>
<rect x="174" y="604" width="2" height="4" fill="#7e03a8"/>
<rect x="174" y="612" width="108" height="4" fill="#7e03a8"/>
<rect x="182" y="616" width="148" height="4" fill="#7e03a8"/>
<rect x="182" y="620" width="94" height="4" fill="#7e03a8"/>
<rect x="174" y="624" width="2" height="4" fill="#7e03a8"/>
<rect x="174" y="632" width="84" height="4" fill="#7e03a8"/>
<rect x="182" y="636" width="126" height="4" fill="#7e03a8"/>
<rect x="182" y="640" width="84" height="4" fill="#7e03a8"/>
<rect x="182" y="644" width="72" height="4" fill="#7e03a8"/>
<rect x="174" y="648" width="2" height="4" fill="#7e03a8"/>
<rect x="174" y="656" width="80" height="4" fill="#7e03a8"/>
<rect x="182" y="660" width="142" height="4" fill="#7e03a8"/>
<rect x="182" y="664" width="80" height="4" fill="#7e03a8"/>
<rect x="182" y="668" width="72" height="4" fill="#7e03a8"/>
<rect x="174" y="672" width="2" height="4" fill="#7e03a8"/>
<rect x="174" y="680" width="90" height="4" fill="#7e03a8"/>
<rect x="182" y="684" width="128" height="4" fill="#7e03a8"/>
<rect x="182" y="688" width="70" height="4" fill="#7e03a8"/>
<rect x="182" y="692" width="90" height="4" fill="#7e03a8"/>
<rect x="174" y="696" width="2" height="4" fill="#7e03a8"/>
<rect x="174" y="704" width="99" height="4" fill="#7e03a8"/>
<rect x="182" y="708" width="128" height="4" fill="#7e03a8"/>
<rect x="182" y="712" width="70" height="4" fill="#7e03a8"/>
<rect x="174" y="716" width="2" height="4" fill="#7e03a8"/>
<rect x="174" y="724" width="60" height="4" fill="#0d0887"/>
<rect x="174" y="732" width="120" height="4" fill="#7e03a8"/>
<rect x="182" y="736" width="178" height="4" fill="#7e03a8"/>
<rect x="174" y="740" width="2" height="4" fill="#7e03a8"/>
<rect x="174" y="748" width="116" height="4" fill="#7e03a8"/>
<rect x="182" y="752" width="162" height="4" fill="#7e03a8"/>
<rect x="174" y="756" width="2" height="4" fill="#7e03a8"/>
<rect x="174" y="764" width="114" height="4" fill="#7e03a8"/>
<rect x="182" y="768" width="172" height="4" fill="#7e03a8"/>
<rect x="174" y="772" width="2" height="4" fill="#7e03a8"/>
<rect x="174" y="780" width="67" height="4" fill="#7e03a8"/>
<rect x="182" y="784" width="68" height="4" fill="#7e03a8"/>
<rect x="190" y="788" width="66" height="4" fill="#cc4778"/>
<rect x="190" y="792" width="58" height="4" fill="#cc4778"/>
<rect x="182" y="796" width="84" height="4" fill="#7e03a8"/>
<rect x="174" y="800" width="2" height="4" fill="#7e03a8"/>
<rect x="174" y="808" width="91" height="4" fill="#7e03a8"/>
<rect x="182" y="812" width="116" height="4" fill="#7e03a8"/>
<rect x="182" y="816" width="98" height="4" fill="#7e03a8"/>
<rect x="182" y="820" width="84" height="4" fill="#7e03a8"/>
<rect x="182" y="824" width="70" height="4" fill="#7e03a8"/>
<rect x="174" y="828" width="2" height="4" fill="#7e03a8"/>
</svg>
