<svg xmlns="http://www.w3.org/2000/svg" viewBox="0 0 282 492" width="282" height="492" preserveAspectRatio="xMinYMin meet">
<rect width="282" height="492" fill="#fafafa"/>
<rect x="8" y="8" width="34" height="4" fill="#0d0887"/>
<rect x="8" y="16" width="24" height="4" fill="#0d0887"/>
<rect x="8" y="24" width="24" height="4" fill="#0d0887"/>
<rect x="8" y="32" width="36" height="4" fill="#0d0887"/>
<rect x="16" y="36" width="48" height="4" fill="#7e03a8"/>
<rect x="16" y="40" width="42" height="4" fill="#7e03a8"/>
<rect x="16" y="44" width="44" height="4" fill="#7e03a8"/>
<rect x="8" y="48" width="2" height="4" fill="#0d0887"/>
<rect x="8" y="56" width="70" height="4" fill="#0d0887"/>
<rect x="8" y="60" width="40" height="4" fill="#7e03a8"/>
<rect x="16" y="64" width="34" height="4" fill="#7e03a8"/>
<rect x="16" y="68" width="50" height="4" fill="#7e03a8"/>
<rect x="24" y="72" width="26" height="4" fill="#cc4778"/>
<rect x="32" y="76" width="52" height="4" fill="#f0844c"/>
<rect x="24" y="80" width="2" height="4" fill="#cc4778"/>
<rect x="16" y="84" width="2" height="4" fill="#7e03a8"/>
<rect x="16" y="88" width="26" height="4" fill="#7e03a8"/>
<rect x="8" y="92" width="2" height="4" fill="#7e03a8"/>
<rect x="8" y="100" width="60" height="4" fill="#0d0887"/>
<rect x="8" y="104" width="40" height="4" fill="#7e03a8"/>
<rect x="16" y="108" width="38" height="4" fill="#7e03a8"/>
<rect x="16" y="112" width="50" height="4" fill="#7e03a8"/>
<rect x="24" y="116" width="64" height="4" fill="#cc4778"/>
<rect x="16" y="120" width="2" height="4" fill="#7e03a8"/>
<rect x="16" y="124" width="26" height="4" fill="#7e03a8"/>
<rect x="8" y="128" width="2" height="4" fill="#7e03a8"/>
<rect x="8" y="136" width="56" height="4" fill="#0d0887"/>
<rect x="8" y="140" width="40" height="4" fill="#7e03a8"/>
<rect x="16" y="144" width="20" height="4" fill="#7e03a8"/>
<rect x="16" y="148" width="50" height="4" fill="#7e03a8"/>
<rect x="24" y="152" width="44" height="4" fill="#cc4778"/>
<rect x="32" y="156" width="14" height="4" fill="#f0844c"/>
<rect x="24" y="160" width="2" height="4" fill="#cc4778"/>
<rect x="16" y="164" width="2" height="4" fill="#7e03a8"/>
<rect x="16" y="168" width="24" height="4" fill="#7e03a8"/>
<rect x="8" y="172" width="2" height="4" fill="#7e03a8"/>
<rect x="8" y="180" width="54" height="4" fill="#0d0887"/>
<rect x="8" y="184" width="40" height="4" fill="#7e03a8"/>
<rect x="16" y="188" width="16" height="4" fill="#7e03a8"/>
<rect x="16" y="192" width="50" height="4" fill="#7e03a8"/>
<rect x="24" y="196" width="24" height="4" fill="#cc4778"/>
<rect x="16" y="200" width="2" height="4" fill="#7e03a8"/>
<rect x="16" y="204" width="82" height="4" fill="#7e03a8"/>
<rect x="8" y="208" width="2" height="4" fill="#7e03a8"/>
<rect x="8" y="216" width="100" height="4" fill="#0d0887"/>
<rect x="8" y="220" width="40" height="4" fill="#7e03a8"/>
<rect x="16" y="224" width="50" height="4" fill="#7e03a8"/>
<rect x="24" y="228" width="84" height="4" fill="#cc4778"/>
<rect x="32" y="232" width="20" height="4" fill="#f0844c"/>
<rect x="24" y="236" width="2" height="4" fill="#cc4778"/>
<rect x="16" y="240" width="2" height="4" fill="#7e03a8"/>
<rect x="16" y="244" width="20" height="4" fill="#7e03a8"/>
<rect x="8" y="248" width="2" height="4" fill="#7e03a8"/>
<rect x="8" y="256" width="90" height="4" fill="#0d0887"/>
<rect x="8" y="260" width="40" height="4" fill="#7e03a8"/>
<rect x="16" y="264" width="44" height="4" fill="#7e03a8"/>
<rect x="24" y="268" width="56" height="4" fill="#cc4778"/>
<rect x="32" y="272" width="32" height="4" fill="#f0844c"/>
<rect x="24" y="276" width="2" height="4" fill="#cc4778"/>
<rect x="16" y="280" width="2" height="4" fill="#7e03a8"/>
<rect x="16" y="284" width="20" height="4" fill="#7e03a8"/>
<rect x="8" y="288" width="2" height="4" fill="#7e03a8"/>
<rect x="8" y="296" width="90" height="4" fill="#0d0887"/>
<rect x="8" y="300" width="50" height="4" fill="#7e03a8"/>
<rect x="16" y="304" width="66" height="4" fill="#7e03a8"/>
<rect x="16" y="308" width="50" height="4" fill="#7e03a8"/>
<rect x="24" y="312" width="84" height="4" fill="#cc4778"/>
<rect x="16" y="316" width="2" height="4" fill="#7e03a8"/>
<rect x="16" y="320" width="26" height="4" fill="#7e03a8"/>
<rect x="8" y="324" width="2" height="4" fill="#7e03a8"/>
<rect x="8" y="332" width="100" height="4" fill="#0d0887"/>
<rect x="8" y="336" width="40" height="4" fill="#7e03a8"/>
<rect x="16" y="340" width="50" height="4" fill="#7e03a8"/>
<rect x="24" y="344" width="84" height="4" fill="#cc4778"/>
<rect x="32" y="348" width="44" height="4" fill="#f0844c"/>
<rect x="40" y="352" width="10" height="4" fill="#fcce25"/>
<rect x="32" y="356" width="2" height="4" fill="#f0844c"/>
<rect x="24" y="360" width="2" height="4" fill="#cc4778"/>
<rect x="16" y="364" width="2" height="4" fill="#7e03a8"/>
<rect x="8" y="368" width="2" height="4" fill="#7e03a8"/>
<rect x="8" y="376" width="110" height="4" fill="#0d0887"/>
<rect x="8" y="380" width="40" height="4" fill="#7e03a8"/>
<rect x="16" y="384" width="50" height="4" fill="#7e03a8"/>
<rect x="24" y="388" width="34" height="4" fill="#cc4778"/>
<rect x="32" y="392" width="24" height="4" fill="#f0844c"/>
<rect x="24" y="396" width="2" height="4" fill="#cc4778"/>
<rect x="16" y="400" width="2" height="4" fill="#7e03a8"/>
<rect x="16" y="404" width="22" height="4" fill="#7e03a8"/>
<rect x="8" y="408" width="2" height="4" fill="#7e03a8"/>
<rect x="8" y="416" width="100" height="4" fill="#0d0887"/>
<rect x="8" y="420" width="40" height="4" fill="#7e03a8"/>
<rect x="16" y="424" width="38" height="4" fill="#7e03a8"/>
<rect x="24" y="428" width="38" height="4" fill="#cc4778"/>
<rect x="16" y="432" width="2" height="4" fill="#7e03a8"/>
<rect x="8" y="436" width="2" height="4" fill="#7e03a8"/>
<rect x="8" y="444" width="96" height="4" fill="#0d0887"/>
<rect x="8" y="448" width="44" height="4" fill="#7e03a8"/>
<rect x="16" y="452" width="44" height="4" fill="#7e03a8"/>
<rect x="24" y="456" width="46" height="4" fill="#cc4778"/>
<rect x="16" y="460" width="2" height="4" fill="#7e03a8"/>
<rect x="8" y="464" width="2" height="4" fill="#7e03a8"/>
<rect x="8" y="472" width="40" height="4" fill="#7e03a8"/>
<rect x="8" y="476" width="40" height="4" fill="#7e03a8"/>
<rect x="134" y="8" width="34" height="4" fill="#0d0887"/>
<rect x="134" y="16" width="24" height="4" fill="#0d0887"/>
<rect x="134" y="24" width="16" height="4" fill="#0d0887"/>
<rect x="142" y="28" width="10" height="4" fill="#7e03a8"/>
<rect x="142" y="36" width="78" height="4" fill="#7e03a8"/>
<rect x="134" y="40" width="2" height="4" fill="#0d0887"/>
<rect x="134" y="48" width="36" height="4" fill="#0d0887"/>
<rect x="142" y="52" width="48" height="4" fill="#7e03a8"/>
<rect x="142" y="56" width="42" height="4" fill="#7e03a8"/>
<rect x="142" y="60" width="44" height="4" fill="#7e03a8"/>
<rect x="134" y="64" width="2" height="4" fill="#0d0887"/>
<rect x="134" y="72" width="68" height="4" fill="#0d0887"/>
<rect x="134" y="76" width="40" height="4" fill="#7e03a8"/>
<rect x="134" y="80" width="40" height="4" fill="#7e03a8"/>
<rect x="134" y="84" width="40" height="4" fill="#7e03a8"/>
<rect x="134" y="88" width="40" height="4" fill="#7e03a8"/>
<rect x="134" y="96" width="70" height="4" fill="#0d0887"/>
<rect x="134" y="100" width="84" height="4" fill="#7e03a8"/>
<rect x="142" y="104" width="92" height="4" fill="#7e03a8"/>
<rect x="134" y="108" width="2" height="4" fill="#7e03a8"/>
<rect x="134" y="116" width="60" height="4" fill="#0d0887"/>
<rect x="134" y="120" width="78" height="4" fill="#7e03a8"/>
<rect x="142" y="124" width="96" height="4" fill="#7e03a8"/>
<rect x="134" y="128" width="2" height="4" fill="#7e03a8"/>
<rect x="134" y="136" width="56" height="4" fill="#0d0887"/>
<rect x="134" y="140" width="72" height="4" fill="#7e03a8"/>
<rect x="142" y="144" width="102" height="4" fill="#7e03a8"/>
<rect x="134" y="148" width="2" height="4" fill="#7e03a8"/>
<rect x="134" y="156" width="54" height="4" fill="#0d0887"/>
<rect x="134" y="160" width="78" height="4" fill="#7e03a8"/>
<rect x="142" y="164" width="56" height="4" fill="#7e03a8"/>
<rect x="142" y="168" width="90" height="4" fill="#7e03a8"/>
<rect x="142" y="172" width="132" height="4" fill="#7e03a8"/>
<rect x="142" y="176" width="82" height="4" fill="#7e03a8"/>
<rect x="134" y="180" width="2" height="4" fill="#7e03a8"/>
<rect x="134" y="188" width="100" height="4" fill="#0d0887"/>
<rect x="134" y="192" width="40" height="4" fill="#7e03a8"/>
<rect x="142" y="196" width="50" height="4" fill="#7e03a8"/>
<rect x="150" y="200" width="84" height="4" fill="#cc4778"/>
<rect x="158" y="204" width="20" height="4" fill="#f0844c"/>
<rect x="150" y="208" width="2" height="4" fill="#cc4778"/>
<rect x="142" y="212" width="2" height="4" fill="#7e03a8"/>
<rect x="142" y="216" width="20" height="4" fill="#7e03a8"/>
<rect x="134" y="220" width="2" height="4" fill="#7e03a8"/>
<rect x="134" y="228" width="90" height="4" fill="#0d0887"/>
<rect x="134" y="232" width="40" height="4" fill="#7e03a8"/>
<rect x="142" y="236" width="44" height="4" fill="#7e03a8"/>
<rect x="150" y="240" width="56" height="4" fill="#cc4778"/>
<rect x="158" y="244" width="32" height="4" fill="#f0844c"/>
<rect x="150" y="248" width="2" height="4" fill="#cc4778"/>
<rect x="142" y="252" width="2" height="4" fill="#7e03a8"/>
<rect x="142" y="256" width="20" height="4" fill="#7e03a8"/>
<rect x="134" y="260" width="2" height="4" fill="#7e03a8"/>
<rect x="134" y="268" width="90" height="4" fill="#0d0887"/>
<rect x="134" y="272" width="50" height="4" fill="#7e03a8"/>
<rect x="142" y="276" width="66" height="4" fill="#7e03a8"/>
<rect x="142" y="280" width="50" height="4" fill="#7e03a8"/>
<rect x="150" y="284" width="84" height="4" fill="#cc4778"/>
<rect x="142" y="288" width="2" height="4" fill="#7e03a8"/>
<rect x="142" y="292" width="26" height="4" fill="#7e03a8"/>
<rect x="134" y="296" width="2" height="4" fill="#7e03a8"/>
<rect x="134" y="304" width="100" height="4" fill="#0d0887"/>
<rect x="134" y="308" width="40" height="4" fill="#7e03a8"/>
<rect x="142" y="312" width="50" height="4" fill="#7e03a8"/>
<rect x="150" y="316" width="84" height="4" fill="#cc4778"/>
<rect x="158" y="320" width="44" height="4" fill="#f0844c"/>
<rect x="166" y="324" width="10" height="4" fill="#fcce25"/>
<rect x="158" y="328" width="2" height="4" fill="#f0844c"/>
<rect x="150" y="332" width="2" height="4" fill="#cc4778"/>
<rect x="142" y="336" width="2" height="4" fill="#7e03a8"/>
<rect x="134" y="340" width="2" height="4" fill="#7e03a8"/>
<rect x="134" y="348" width="110" height="4" fill="#0d0887"/>
<rect x="134" y="352" width="40" height="4" fill="#7e03a8"/>
<rect x="142" y="356" width="50" height="4" fill="#7e03a8"/>
<rect x="150" y="360" width="34" height="4" fill="#cc4778"/>
<rect x="158" y="364" width="24" height="4" fill="#f0844c"/>
<rect x="150" y="368" width="2" height="4" fill="#cc4778"/>
<rect x="142" y="372" width="2" height="4" fill="#7e03a8"/>
<rect x="142" y="376" width="22" height="4" fill="#7e03a8"/>
<rect x="134" y="380" width="2" height="4" fill="#7e03a8"/>
<rect x="134" y="388" width="100" height="4" fill="#0d0887"/>
<rect x="134" y="392" width="40" height="4" fill="#7e03a8"/>
<rect x="142" y="396" width="38" height="4" fill="#7e03a8"/>
<rect x="150" y="400" width="38" height="4" fill="#cc4778"/>
<rect x="142" y="404" width="2" height="4" fill="#7e03a8"/>
<rect x="134" y="408" width="2" height="4" fill="#7e03a8"/>
<rect x="134" y="416" width="96" height="4" fill="#0d0887"/>
<rect x="134" y="420" width="44" height="4" fill="#7e03a8"/>
<rect x="142" y="424" width="44" height="4" fill="#7e03a8"/>
<rect x="150" y="428" width="46" height="4" fill="#cc4778"/>
<rect x="142" y="432" width="2" height="4" fill="#7e03a8"/>
<rect x="134" y="436" width="2" height="4" fill="#7e03a8"/>
<rect x="134" y="444" width="40" height="4" fill="#7e03a8"/>
<rect x="134" y="448" width="40" height="4" fill="#7e03a8"/>
</svg>
